<svg width="16" height="16" viewBox="0 0 16 16" fill="none" xmlns="http://www.w3.org/2000/svg">
<path d="M12.5565 0.439194C11.9709 -0.146399 11.0214 -0.146397 10.4358 0.439194L7.6641 3.21095V2.83762C7.6641 2.00947 6.99273 1.33812 6.1646 1.33812H1.4995C0.671349 1.33812 0 2.00947 0 2.83762V14.8337C0 15.4778 0.52216 16 1.16628 16H13.1623C13.9904 16 14.6618 15.3286 14.6618 14.5005V9.83263C14.6618 9.0045 13.9904 8.33313 13.1623 8.33313H12.7918L15.5608 5.56415C16.1464 4.97856 16.1464 4.02912 15.5608 3.44353L12.5565 0.439194ZM7.6641 5.79672L10.2005 8.33313H7.6641V5.79672ZM6.66444 8.33313H0.999666V2.83762C0.999666 2.56157 1.22345 2.33779 1.4995 2.33779H6.1646C6.44065 2.33779 6.66444 2.56157 6.66444 2.83762V8.33313ZM0.999666 9.3328H6.66444V15.0003H1.4995C1.22345 15.0003 0.999666 14.7765 0.999666 14.5004V9.3328ZM7.6641 15.0003V9.3328H13.1623C13.4383 9.3328 13.6621 9.55659 13.6621 9.83263V14.5005C13.6621 14.7765 13.4383 15.0003 13.1623 15.0003H7.6641Z" fill="black"/>
</svg>
