<svg width="15" height="16" viewBox="0 0 15 16" fill="none" xmlns="http://www.w3.org/2000/svg">
<path d="M1 14.6069C3.97428 12.0306 4.86331 7.79221 6.14689 5.53417M6.14689 5.53417C8.41312 1.54749 12.0606 2.94672 11.5959 5.53417C11.1311 8.12163 10.6199 8.7213 10.6199 12.2416C10.6199 13.4829 10.9563 14.1429 11.4432 14.421C13.3906 15.5331 14.5083 11.8439 12.7228 10.487V10.487C10.8379 9.05445 1.65062 9.52086 1.65062 9.52086M6.14689 5.53417C6.14689 5.53417 7.85478 1.99169 6.14689 1.19213C5.87965 1.06702 5.59733 1.00934 5.3112 1.00105C3.52461 0.949303 3.53874 3.35645 4.99668 4.39036V4.39036" stroke="white" stroke-width="1.5" stroke-linecap="round" stroke-linejoin="round"/>
</svg>
