<?xml version="1.0" encoding="utf-8"?>
<!-- Generator: Adobe Illustrator 26.3.1, SVG Export Plug-In . SVG Version: 6.00 Build 0)  -->
<svg version="1.1" id="Layer_1" xmlns="http://www.w3.org/2000/svg" xmlns:xlink="http://www.w3.org/1999/xlink" x="0px" y="0px"
	 viewBox="0 0 15 16" style="enable-background:new 0 0 15 16;" xml:space="preserve">
<style type="text/css">
	.st0{fill:none;stroke:#231F20;stroke-width:1.5;stroke-linecap:round;stroke-linejoin:round;}
</style>
<path class="st0" d="M1,14.6C4,12,4.9,7.8,6.1,5.5 M6.1,5.5c2.3-4,5.9-2.6,5.4,0c-0.5,2.6-1,3.2-1,6.7c0,1.2,0.3,1.9,0.8,2.2
	c1.9,1.1,3.1-2.6,1.3-3.9l0,0c-1.9-1.4-11.1-1-11.1-1 M6.1,5.5c0,0,1.7-3.5,0-4.3C5.9,1.1,5.6,1,5.3,1C3.5,0.9,3.5,3.4,5,4.4l0,0"/>
</svg>
