<svg width="16" height="16" viewBox="0 0 16 16" fill="none" xmlns="http://www.w3.org/2000/svg">
<path d="M13.2243 4.2857C13.0202 3.98271 12.7313 3.75094 12.3886 3.61621C11.6446 3.32301 11.0048 3.12715 10.4323 3.01676C10.0307 2.9396 9.63306 3.13368 9.44194 3.49929L9.39423 3.59069C8.97031 3.54469 8.52012 3.52926 8.00742 3.54202C7.48175 3.52956 7.03004 3.54469 6.60552 3.59069L6.55811 3.49929C6.36698 3.13368 5.96873 2.9399 5.56805 3.01706C4.99558 3.12715 4.35546 3.32301 3.61179 3.61651C3.26939 3.75124 2.98043 3.98271 2.77602 4.28599C1.35056 6.40218 0.791974 8.68484 1.06855 11.2649C1.07821 11.3554 1.12954 11.4364 1.20775 11.4848C2.30439 12.1643 3.25338 12.6296 4.19423 12.9496C4.58766 13.0846 5.02396 12.9335 5.25615 12.5848L5.67011 11.9613C5.34039 11.8391 5.01852 11.6943 4.70994 11.5213C4.56531 11.4402 4.51489 11.2589 4.59732 11.1168C4.67975 10.974 4.86423 10.9239 5.00916 11.0061C5.92736 11.5207 6.96543 11.7928 8.01104 11.7928C9.05666 11.7928 10.0947 11.5207 11.0129 11.0061C11.1576 10.9239 11.342 10.974 11.4248 11.1168C11.5072 11.2589 11.4568 11.4402 11.3121 11.5213C10.9933 11.7002 10.66 11.8492 10.3185 11.9735L10.7445 12.5973C10.9199 12.854 11.2095 13 11.5078 13C11.605 13 11.7032 12.9843 11.7986 12.9522C12.7421 12.632 13.6929 12.1661 14.792 11.4851C14.8702 11.4367 14.9215 11.3554 14.9312 11.2652C15.2084 8.68484 14.6498 6.40188 13.2243 4.2857ZM6.07139 9.42941C5.48985 9.42941 5.01128 8.82729 5.01128 8.09548C5.01128 7.36367 5.48985 6.76155 6.07139 6.76155C6.65292 6.76155 7.1315 7.36367 7.1315 8.09548C7.1315 8.82729 6.65292 9.42941 6.07139 9.42941ZM9.99449 9.42169C9.41838 9.42169 8.94434 8.81601 8.94434 8.07975C8.94434 7.34349 9.41838 6.73781 9.99449 6.73781C10.5706 6.73781 11.0446 7.34349 11.0446 8.07975C11.0446 8.81601 10.5706 9.42169 9.99449 9.42169Z" fill="black"/>
</svg>
