<svg width="108" height="109" viewBox="0 0 108 109" fill="none" xmlns="http://www.w3.org/2000/svg">
<path d="M16.8281 33.5781C16.8281 36.2656 16.4375 38.8438 15.6562 41.3125C14.875 43.75 13.75 45.9844 12.2812 48.0156C10.8438 50.0156 9.07812 51.7656 6.98438 53.2656C4.92188 54.7656 2.59375 55.9062 0 56.6875V13.8906C0 12.0469 0.34375 10.3125 1.03125 8.6875C1.75 7.03125 2.71875 5.59375 3.9375 4.375C5.15625 3.15625 6.57812 2.1875 8.20312 1.46875C9.85938 0.75 11.6094 0.390625 13.4531 0.390625H94.3125C96.1875 0.390625 97.9375 0.75 99.5625 1.46875C101.219 2.15625 102.656 3.10938 103.875 4.32812C105.094 5.54688 106.047 6.98438 106.734 8.64062C107.453 10.2656 107.812 12.0156 107.812 13.8906V63.4375C105.719 62.125 103.844 60.5938 102.188 58.8438C100.531 57.0625 99.1094 55.125 97.9219 53.0312C96.7656 50.9375 95.875 48.7188 95.25 46.375C94.625 44.0312 94.3125 41.625 94.3125 39.1562C94.3125 36.1562 94.7656 33.25 95.6719 30.4375C96.5781 27.5938 97.9062 24.9531 99.6562 22.5156C97.3125 24.2031 95.25 26.1875 93.4688 28.4688C91.7188 30.7188 90.3438 33.2031 89.3438 35.9219C87.4375 35.2031 85.6562 34.2656 84 33.1094C82.375 31.9219 80.9062 30.5469 79.5938 28.9844C80.9062 27.2969 81.9531 25.4531 82.7344 23.4531C83.5156 21.4531 83.9844 19.375 84.1406 17.2188C83.1406 18.7812 81.9688 20.1875 80.625 21.4375C79.2812 22.6875 77.8125 23.75 76.2188 24.625C74.625 25.5 72.9375 26.1719 71.1562 26.6406C69.4062 27.1094 67.5938 27.3438 65.7188 27.3438C62.6875 27.3438 59.8438 26.7812 57.1875 25.6562C54.5312 24.5 52.2031 22.9375 50.2031 20.9688C48.2344 18.9688 46.6719 16.6406 45.5156 13.9844C44.3594 11.3281 43.7812 8.48438 43.7812 5.45312C43.7812 5.17188 43.7812 4.89062 43.7812 4.60938C43.8125 4.32812 43.8438 4.04688 43.875 3.76562C42.75 5.54688 41.8906 7.4375 41.2969 9.4375C40.7031 11.4062 40.4062 13.4375 40.4062 15.5312C40.4062 18.5 40.9688 21.3125 42.0938 23.9688C39.875 26.9688 37.125 29.3438 33.8438 31.0938C30.5625 32.8438 27.0625 33.8281 23.3438 34.0469C23 31.7969 22.3594 29.6719 21.4219 27.6719C20.5156 25.6406 19.3438 23.7969 17.9062 22.1406C16.5 20.4844 14.875 19.0469 13.0312 17.8281C11.1875 16.5781 9.1875 15.6094 7.03125 14.9219C8.5 15.9844 9.82812 17.2188 11.0156 18.625C12.2344 20 13.2656 21.5 14.1094 23.125C14.9844 24.7188 15.6562 26.4062 16.125 28.1875C16.5938 29.9688 16.8281 31.7656 16.8281 33.5781ZM12.5156 54.4375C14.7031 56.0312 16.4531 57.9844 17.7656 60.2969C19.1094 62.6094 19.9062 65.1094 20.1562 67.7969C24.0625 67.7969 27.7656 68.5781 31.2656 70.1406C34.7656 71.6719 37.7969 73.9062 40.3594 76.8438C41.8281 75.0625 43.5938 73.6719 45.6562 72.6719C47.7188 71.6406 49.9062 71.125 52.2188 71.125C53.8125 71.125 55.3594 71.375 56.8594 71.875C58.3594 72.3438 59.7344 73.0312 60.9844 73.9375C62.2344 74.8125 63.3281 75.875 64.2656 77.125C65.2344 78.375 65.9844 79.75 66.5156 81.25C69.6719 81.3438 72.7188 81.9375 75.6562 83.0312C76.3125 81.3125 77.1406 79.7031 78.1406 78.2031C79.1719 76.6719 80.3594 75.2969 81.7031 74.0781C83.0469 72.8281 84.5 71.75 86.0625 70.8438C87.6562 69.9375 89.3438 69.2188 91.125 68.6875C91.0312 67.8438 90.9844 66.9844 90.9844 66.1094C90.9844 64.5156 91.1719 62.9688 91.5469 61.4688C91.9219 59.9688 92.5 58.5312 93.2812 57.1562C94.6875 60.4688 96.6406 63.3906 99.1406 65.9219C101.672 68.4531 104.562 70.4688 107.812 71.9688V84.5312C105.281 84.2812 102.891 83.5625 100.641 82.375C98.4219 81.1562 96.5156 79.5469 94.9219 77.5469C95.3281 79.1406 95.9375 80.6406 96.75 82.0469C97.5625 83.4219 98.5156 84.6875 99.6094 85.8438C100.734 86.9688 101.984 87.9375 103.359 88.75C104.766 89.5938 106.25 90.2344 107.812 90.6719V94.75C107.812 96.9062 107.312 98.9375 106.312 100.844C105.344 102.75 103.984 104.344 102.234 105.625C101.484 103.844 100.562 102.156 99.4688 100.562C98.4062 98.9688 97.1875 97.5 95.8125 96.1562C94.4688 94.8438 92.9844 93.6562 91.3594 92.5938C89.7344 91.5625 88.0312 90.6875 86.25 89.9688C88.6562 92.4375 90.5469 95.2344 91.9219 98.3594C93.2969 101.484 94.0781 104.766 94.2656 108.203H37.125C37.25 106.047 37.6094 103.953 38.2031 101.922C38.7969 99.8906 39.5938 97.9375 40.5938 96.0625C39.4375 94.6875 38.5625 93.1562 37.9688 91.4688C37.375 89.8125 37.0781 88.0938 37.0781 86.3125C37.0781 85.1562 37.1875 84.0938 37.4062 83.125C36.2188 84.5312 35.2969 86.0781 34.6406 87.7656C34.0156 89.4531 33.7031 91.2188 33.7031 93.0625C33.7031 93.7812 33.75 94.5 33.8438 95.2188C33.9688 95.9688 34.125 96.7031 34.3125 97.4219C32.9062 98.9844 31.6875 100.672 30.6562 102.484C29.6562 104.297 28.8438 106.203 28.2188 108.203H13.4531C11.9219 108.203 10.4375 107.953 9 107.453C7.59375 106.953 6.3125 106.25 5.15625 105.344C4 104.438 3 103.359 2.15625 102.109C1.34375 100.859 0.75 99.4844 0.375 97.9844C2.65625 97.7344 4.78125 97.0938 6.75 96.0625C8.71875 95.0312 10.4375 93.7188 11.9062 92.125C13.375 90.5312 14.5469 88.7188 15.4219 86.6875C16.2969 84.625 16.7656 82.4375 16.8281 80.125C15.9844 81.3438 15 82.4531 13.875 83.4531C12.75 84.4219 11.5312 85.25 10.2188 85.9375C8.90625 86.5938 7.53125 87.1094 6.09375 87.4844C4.65625 87.8281 3.1875 88 1.6875 88C1.40625 88 1.125 88 0.84375 88C0.5625 87.9688 0.28125 87.9375 0 87.9062V63.4375C2.53125 62.6875 4.875 61.5469 7.03125 60.0156C9.1875 58.4531 11.0156 56.5938 12.5156 54.4375ZM47.1562 47.5469C47.1562 48.9531 46.8906 50.2656 46.3594 51.4844C45.8281 52.7031 45.1094 53.7812 44.2031 54.7188C43.2969 55.625 42.2344 56.3438 41.0156 56.875C39.7969 57.4062 38.4844 57.6719 37.0781 57.6719C35.6719 57.6719 34.3594 57.4062 33.1406 56.875C31.9219 56.3438 30.8438 55.625 29.9062 54.7188C29 53.7812 28.2812 52.7031 27.75 51.4844C27.2188 50.2656 26.9531 48.9531 26.9531 47.5469C26.9531 46.1406 27.2188 44.8281 27.75 43.6094C28.2812 42.3906 29 41.3281 29.9062 40.4219C30.8438 39.5156 31.9219 38.7969 33.1406 38.2656C34.3594 37.7344 35.6719 37.4688 37.0781 37.4688C38.4844 37.4688 39.7969 37.7344 41.0156 38.2656C42.2344 38.7969 43.2969 39.5156 44.2031 40.4219C45.1094 41.3281 45.8281 42.3906 46.3594 43.6094C46.8906 44.8281 47.1562 46.1406 47.1562 47.5469ZM70.7344 57.6719C69.3281 57.6719 68.0156 57.4062 66.7969 56.875C65.5781 56.3438 64.5156 55.625 63.6094 54.7188C62.7031 53.7812 61.9844 52.7031 61.4531 51.4844C60.9219 50.2656 60.6562 48.9531 60.6562 47.5469C60.6562 46.1406 60.9219 44.8281 61.4531 43.6094C61.9844 42.3906 62.7031 41.3281 63.6094 40.4219C64.5156 39.5156 65.5781 38.7969 66.7969 38.2656C68.0156 37.7344 69.3281 37.4688 70.7344 37.4688C72.1406 37.4688 73.4531 37.7344 74.6719 38.2656C75.8906 38.7969 76.9531 39.5156 77.8594 40.4219C78.7969 41.3281 79.5312 42.3906 80.0625 43.6094C80.5938 44.8281 80.8594 46.1406 80.8594 47.5469C80.8594 48.9531 80.5938 50.2656 80.0625 51.4844C79.5312 52.7031 78.7969 53.7812 77.8594 54.7188C76.9531 55.625 75.8906 56.3438 74.6719 56.875C73.4531 57.4062 72.1406 57.6719 70.7344 57.6719Z" fill="black"/>
</svg>
