<svg width="16" height="13" viewBox="0 0 16 13" fill="none" xmlns="http://www.w3.org/2000/svg">
<g clip-path="url(#clip0_360_4362)">
<path d="M0 3.70067L7.7485 7.70279C7.90617 7.78426 8.09402 7.78426 8.25177 7.70279L16.0001 3.70139V10.6528C16.0001 11.9044 15.0136 12.9272 13.7706 12.9963L13.6365 13H2.36375C1.10336 13 0.0733884 12.0203 0.00385423 10.786L0 10.6528V3.70067ZM2.36375 0H13.6365C14.8969 0 15.9268 0.979665 15.9964 2.21403L16.0001 2.34722V2.48011L8.00013 6.6117L0 2.48011V2.34722C0 1.09559 0.986628 0.0727668 2.22962 0.00371554L2.36375 0H13.6365H2.36375Z" fill="black"/>
</g>
<defs>
<clipPath id="clip0_360_4362">
<rect width="16" height="13" fill="white"/>
</clipPath>
</defs>
</svg>
